<?xml version="1.0" standalone="no"?>
<svg
  width="600"
  height="600"
  viewBox="0 0 600 600"
  xmlns="http://www.w3.org/2000/svg"
>
  <g transform="translate(300,300)">
    <path d="M152.7,-181.3C198.6,-143.4,237.2,-96,251.4,-40.6C265.5,14.8,255.3,78.1,223.7,125.5C192,173,138.9,204.4,81.4,226.6C23.9,248.7,-38,261.5,-93.8,246.2C-149.7,230.9,-199.6,187.5,-223.8,134.5C-248,81.6,-246.6,19.2,-233.7,-38.9C-220.7,-97,-196.2,-150.8,-155.3,-189.6C-114.4,-228.4,-57.2,-252.2,-1.9,-249.9C53.4,-247.6,106.7,-219.2,152.7,-181.3Z" fill="#0693e3" />
  </g>
</svg>
  