<?xml version="1.0" standalone="no"?>
<svg
  width="600"
  height="600"
  viewBox="0 0 600 600"
  xmlns="http://www.w3.org/2000/svg"
>
  <g transform="translate(300,300)">
    <path d="M97.6,-164.5C125.9,-133.6,148,-105.6,171.3,-72.9C194.6,-40.1,219,-2.6,220.2,35.9C221.3,74.4,199.1,113.8,168.5,142.1C137.9,170.3,99,187.3,62,187.2C25.1,187.1,-9.9,169.8,-47.7,159.9C-85.5,149.9,-126.3,147.3,-157.6,127.5C-188.9,107.6,-210.7,70.5,-214.7,31.9C-218.7,-6.8,-204.9,-47,-185.5,-82.7C-166.1,-118.4,-141.2,-149.7,-109.3,-179C-77.5,-208.2,-38.7,-235.6,-2.1,-232.4C34.6,-229.2,69.2,-195.3,97.6,-164.5Z" fill="#c70039" />
  </g>
</svg>
  